<?xml version="1.0" encoding="UTF-8" standalone="no"?><!DOCTYPE svg PUBLIC "-//W3C//DTD SVG 1.1//EN" "http://www.w3.org/Graphics/SVG/1.1/DTD/svg11.dtd"><svg width="100%" height="100%" viewBox="0 0 1000 600" version="1.1" xmlns="http://www.w3.org/2000/svg" xmlns:xlink="http://www.w3.org/1999/xlink" xml:space="preserve" xmlns:serif="http://www.serif.com/" style="fill-rule:evenodd;clip-rule:evenodd;stroke-linejoin:round;stroke-miterlimit:2;"><ellipse cx="200.64" cy="85.442" rx="59.416" ry="57.984" style="fill:#b4eaff;fill-opacity:0.92;"/><ellipse cx="744.584" cy="105.473" rx="46.416" ry="44.984" style="fill:#009fdc;fill-opacity:0.49;"/><path d="M0,0l97.5,0c-0.178,8.476 80.811,98.935 185.655,83.721c103.446,-15.012 114.504,18.592 170.845,9.651c46.937,-7.448 93.619,-24.435 162.747,-6.929c28.563,7.233 59.212,17.496 74.73,17.713c39.624,0.552 75.396,-12.033 109.722,-15.784c0,0 168.684,-10.751 173.754,119.38c5.069,130.131 45.047,134.884 45.047,134.884l0,257.364l-1020,0l0,-600" style="fill:#13e1ff;"/><ellipse cx="934.114" cy="231.628" rx="59.416" ry="57.984" style="fill:#009fdc;fill-opacity:0.74;"/><path d="M0,0l74.5,0c-7.603,8.704 93.192,96.938 191.762,106.977c32.813,3.341 70.027,-8.481 110.439,-7.071c40.569,1.416 84.349,12.934 123.646,0.869c75.749,-23.256 205.662,70.026 284.763,9.303c46.59,-35.766 173.754,-1.309 173.754,119.379c0,29.137 3.564,80.929 8.969,99.225c16.987,57.489 52.167,145.737 52.167,145.737l0,125.581l-1020,0l0,-600" style="fill:#0093cb;"/><path d="M0,0l149,0" style="fill:none;"/><path d="M562.94,132.272c1.658,-4.535 -0.679,-9.564 -5.215,-11.221l-16.437,-6.007c-4.535,-1.658 -9.564,0.679 -11.221,5.215l-6.007,16.436c-1.658,4.536 0.679,9.565 5.215,11.222l16.437,6.007c4.535,1.658 9.564,-0.679 11.221,-5.215l6.007,-16.437Z" style="fill:#01dfff;"/><path d="M252,481.75c0,-2.622 -2.128,-4.75 -4.75,-4.75l-9.5,0c-2.622,0 -4.75,2.128 -4.75,4.75l0,9.5c0,2.622 2.128,4.75 4.75,4.75l9.5,0c2.622,0 4.75,-2.128 4.75,-4.75l0,-9.5Z" style="fill:#01dfff;"/><path d="M105.383,425.822c2.442,-0.954 3.649,-3.712 2.694,-6.153l-3.459,-8.848c-0.955,-2.442 -3.712,-3.649 -6.153,-2.694l-8.848,3.459c-2.442,0.955 -3.649,3.712 -2.694,6.154l3.459,8.847c0.955,2.442 3.712,3.649 6.153,2.695l8.848,-3.46Z" style="fill:#01dfff;"/><path d="M48.662,296.214c2.441,-0.955 3.649,-3.712 2.694,-6.154l-3.459,-8.848c-0.955,-2.441 -3.712,-3.648 -6.154,-2.694l-8.848,3.46c-2.441,0.954 -3.648,3.711 -2.694,6.153l3.46,8.848c0.954,2.441 3.711,3.649 6.153,2.694l8.848,-3.459Z" style="fill:#01dfff;"/><path d="M233,179.5c0,-1.932 -1.568,-3.5 -3.5,-3.5l-7,0c-1.932,0 -3.5,1.568 -3.5,3.5l0,7c0,1.932 1.568,3.5 3.5,3.5l7,0c1.932,0 3.5,-1.568 3.5,-3.5l0,-7Z" style="fill:#01dfff;"/><path d="M66.657,136.512c1.643,-1.015 2.153,-3.174 1.138,-4.817l-3.679,-5.955c-1.015,-1.644 -3.174,-2.154 -4.817,-1.139l-5.956,3.679c-1.643,1.015 -2.153,3.174 -1.138,4.817l3.679,5.956c1.015,1.643 3.174,2.153 4.817,1.138l5.956,-3.679Z" style="fill:#01dfff;"/><path d="M985.217,135.199c-1.075,-2.391 -3.889,-3.46 -6.28,-2.385l-8.665,3.896c-2.391,1.075 -3.459,3.889 -2.384,6.28l3.895,8.664c1.075,2.391 3.889,3.46 6.28,2.385l8.665,-3.895c2.391,-1.075 3.459,-3.889 2.384,-6.28l-3.895,-8.665Z" style="fill:#01dfff;"/><ellipse cx="77.224" cy="66.667" rx="30.568" ry="29.457" style="fill:#fff;fill-opacity:0.47;"/><ellipse cx="906.577" cy="267.442" rx="13.675" ry="13.178" style="fill:#fff;fill-opacity:0.15;"/><ellipse cx="789.132" cy="189.922" rx="16.893" ry="16.279" style="fill:#fff;fill-opacity:0.25;"/><ellipse cx="851.073" cy="252.713" rx="9.653" ry="9.302" style="fill:#fff;fill-opacity:0.65;"/><ellipse cx="973.344" cy="537.984" rx="17.697" ry="17.054" style="fill:#fff;fill-opacity:0.51;"/><ellipse cx="56.309" cy="558.14" rx="20.915" ry="20.155" style="fill:#fff;fill-opacity:0.15;"/><ellipse cx="110.205" cy="194.574" rx="32.981" ry="31.783" style="fill:#fff;fill-opacity:0.15;"/><ellipse cx="729.606" cy="417.829" rx="24.937" ry="24.031" style="fill:#fff;fill-opacity:0.15;"/><ellipse cx="423.58" cy="217.287" rx="76.42" ry="73.643" style="fill:#fff;fill-opacity:0.3;"/><path d="M904.856,20.669c-3.115,-4.629 -9.403,-5.859 -14.032,-2.743l-16.776,11.29c-4.629,3.115 -5.858,9.403 -2.743,14.032l11.29,16.776c3.115,4.629 9.403,5.858 14.032,2.743l16.776,-11.29c4.629,-3.116 5.858,-9.403 2.743,-14.033l-11.29,-16.775Z" style="fill:#01dfff;"/><ellipse cx="533.328" cy="487.597" rx="32.981" ry="31.783" style="fill:#fff;fill-opacity:0.15;"/><ellipse cx="894.109" cy="405.814" rx="12.468" ry="12.016" style="fill:#fff;fill-opacity:0.15;"/><ellipse cx="255" cy="371.318" rx="23.328" ry="22.481" style="fill:#fff;fill-opacity:0.15;"/></svg>