<?xml version="1.0" encoding="UTF-8" standalone="no"?><!DOCTYPE svg PUBLIC "-//W3C//DTD SVG 1.1//EN" "http://www.w3.org/Graphics/SVG/1.1/DTD/svg11.dtd"><svg width="100%" height="100%" viewBox="0 0 1000 600" version="1.1" xmlns="http://www.w3.org/2000/svg" xmlns:xlink="http://www.w3.org/1999/xlink" xml:space="preserve" xmlns:serif="http://www.serif.com/" style="fill-rule:evenodd;clip-rule:evenodd;stroke-linejoin:round;stroke-miterlimit:2;"><rect x="0" y="0" width="1000" height="600" style="fill:#009ad5;"/><ellipse cx="169" cy="149" rx="96" ry="100" style="fill:#fff;fill-opacity:0.05;"/><circle cx="924.5" cy="512.5" r="31.5" style="fill:#fff;fill-opacity:0.08;"/><circle cx="865" cy="115.5" r="59.5" style="fill:#fff;fill-opacity:0.08;"/><path d="M138.383,217.5c7.451,12.905 3.022,29.432 -9.883,36.883c-12.905,7.451 -29.432,3.022 -36.883,-9.883c-7.451,-12.905 -3.022,-29.432 9.883,-36.883c12.905,-7.451 29.432,-3.022 36.883,9.883Z" style="fill:#fff;fill-opacity:0.08;"/><circle cx="265" cy="85.5" r="76.5" style="fill:#fff;fill-opacity:0.03;"/><path d="M234,418.75c0,-10.348 -8.402,-18.75 -18.75,-18.75l-37.5,0c-10.348,0 -18.75,8.402 -18.75,18.75l0,37.5c0,10.348 8.402,18.75 18.75,18.75l37.5,0c10.348,0 18.75,-8.402 18.75,-18.75l0,-37.5Z" style="fill:#fff;fill-opacity:0.08;"/><path d="M491,471.75c0,-2.622 -2.128,-4.75 -4.75,-4.75l-9.5,0c-2.622,0 -4.75,2.128 -4.75,4.75l0,9.5c0,2.622 2.128,4.75 4.75,4.75l9.5,0c2.622,0 4.75,-2.128 4.75,-4.75l0,-9.5Z" style="fill:#fff;fill-opacity:0.08;"/><path d="M687.856,466.34c-3.113,-11.736 -15.169,-18.737 -26.905,-15.625l-44.463,11.794c-11.736,3.113 -18.737,15.168 -15.624,26.905l11.28,42.529c3.113,11.736 15.169,18.738 26.905,15.625l44.463,-11.794c11.736,-3.113 18.737,-15.168 15.624,-26.905l-11.28,-42.529Z" style="fill:#fff;fill-opacity:0.14;"/><path d="M811.49,55.643c-3.568,-7.163 -12.281,-10.081 -19.444,-6.512l-25.957,12.933c-7.163,3.569 -10.081,12.281 -6.512,19.444l12.933,25.957c3.568,7.163 12.281,10.081 19.444,6.512l25.957,-12.933c7.163,-3.568 10.081,-12.281 6.512,-19.444l-12.933,-25.957Z" style="fill:#fff;fill-opacity:0.15;"/><path d="M920.703,426.001c-1.026,-4.295 -5.346,-6.948 -9.64,-5.922l-15.562,3.718c-4.295,1.026 -6.948,5.346 -5.922,9.64l3.718,15.562c1.026,4.295 5.346,6.948 9.64,5.922l15.562,-3.718c4.295,-1.026 6.948,-5.346 5.922,-9.64l-3.718,-15.562Z" style="fill:#fff;fill-opacity:0.18;"/></svg>