<?xml version="1.0" encoding="UTF-8" standalone="no"?><!DOCTYPE svg PUBLIC "-//W3C//DTD SVG 1.1//EN" "http://www.w3.org/Graphics/SVG/1.1/DTD/svg11.dtd"><svg width="100%" height="100%" viewBox="0 0 2400 1350" version="1.1" xmlns="http://www.w3.org/2000/svg" xmlns:xlink="http://www.w3.org/1999/xlink" xml:space="preserve" xmlns:serif="http://www.serif.com/" style="fill-rule:evenodd;clip-rule:evenodd;stroke-linejoin:round;stroke-miterlimit:2;"><rect x="0" y="0" width="2400" height="1350" style="fill:#eafcff;"/><path d="M2400,-53l-1723.75,0c0,0 35.929,319.985 -116.25,379.624c-152.179,59.639 -301.317,23.498 -337.5,124.06c-36.183,100.562 -222.5,200.977 -222.5,200.977l0,635.188l2400,0l0,-1339.85" style="fill:#13e1ff;"/><ellipse cx="674.375" cy="324.691" rx="194.375" ry="185.282" style="fill:#007aa9;fill-opacity:0.23;"/><ellipse cx="97.187" cy="658.021" rx="97.188" ry="92.641" style="fill:#007aa9;fill-opacity:0.23;"/><path d="M2400,0l-1723.75,0c0,0 35.929,322.409 -116.25,382.5c-152.179,60.091 -301.317,23.676 -337.5,125c-36.183,101.324 -222.5,202.5 -222.5,202.5l0,640l2400,0l0,-1350" style="fill:#0093cb;"/><path d="M2400.06,-25.902l-1723.75,-0.141c0,0 35.902,321.508 -116.281,381.418c-152.184,59.909 -301.319,23.585 -337.51,124.621c-36.192,101.037 -222.517,201.914 -222.517,201.914l-0.052,638.204l2400,0.195l0.11,-1346.21" style="fill:#0093cb;fill-opacity:0.37;"/><ellipse cx="2271.88" cy="1184.97" rx="106.875" ry="101.876" style="fill:#fff;fill-opacity:0.15;"/><g><ellipse cx="2156.25" cy="294.307" rx="182.5" ry="173.963" style="fill:#4cceff;fill-opacity:0.22;"/><ellipse cx="2045" cy="370.565" rx="146.25" ry="139.409" style="fill:#acdbed;fill-opacity:0.22;"/><ellipse cx="2081.25" cy="1092.63" rx="146.25" ry="139.409" style="fill:#acdbed;fill-opacity:0.22;"/><ellipse cx="2168.12" cy="495.079" rx="59.375" ry="56.598" style="fill:#fff;fill-opacity:0.22;"/><ellipse cx="855.625" cy="181.708" rx="59.375" ry="56.598" style="fill:#fff;fill-opacity:0.22;"/></g><path d="M780.099,530.874c-3.441,0.299 -5.968,3.332 -5.64,6.771l1.19,12.459c0.328,3.439 3.388,5.988 6.83,5.689l13.672,-1.186c3.441,-0.299 5.968,-3.332 5.64,-6.771l-1.19,-12.459c-0.328,-3.439 -3.388,-5.988 -6.83,-5.689l-13.672,1.186Z" style="fill:#13e1ff;"/><path d="M96.349,485.054c-3.441,0.299 -5.968,3.333 -5.64,6.771l1.19,12.46c0.328,3.438 3.388,5.987 6.83,5.688l13.672,-1.186c3.441,-0.298 5.968,-3.332 5.64,-6.77l-1.19,-12.46c-0.328,-3.438 -3.388,-5.987 -6.83,-5.689l-13.672,1.186Z" style="fill:#13e1ff;fill-opacity:0.22;"/><path d="M1166.47,970.162c1.947,-2.912 1.1,-6.75 -1.89,-8.567l-11.299,-6.866c-2.991,-1.817 -6.999,-0.929 -8.946,1.982l-7.055,10.55c-1.947,2.911 -1.1,6.75 1.89,8.567l11.299,6.866c2.991,1.817 6.999,0.929 8.946,-1.983l7.055,-10.549Z" style="fill:#13e1ff;"/><path d="M2297.78,955.398c1.431,-3.172 -0.019,-6.818 -3.236,-8.137l-12.455,-5.107c-3.217,-1.319 -6.991,0.185 -8.423,3.356l-5.186,11.493c-1.431,3.172 0.019,6.818 3.236,8.137l12.455,5.107c3.217,1.319 6.991,-0.185 8.423,-3.356l5.186,-11.493Z" style="fill:#13e1ff;"/><path d="M1961.9,218.161c-1.627,-3.085 -5.499,-4.367 -8.641,-2.861l-12.066,5.781c-3.143,1.506 -4.374,5.232 -2.747,8.317l5.894,11.179c1.627,3.084 5.499,4.367 8.641,2.861l12.066,-5.781c3.143,-1.506 4.374,-5.233 2.747,-8.317l-5.894,-11.179Z" style="fill:#13e1ff;"/><path d="M85,1219.23c0,-3.453 -2.803,-6.256 -6.256,-6.256l-13.738,0c-3.453,0 -6.256,2.803 -6.256,6.256l0,12.511c0,3.452 2.803,6.255 6.256,6.255l13.738,0c3.453,0 6.256,-2.803 6.256,-6.255l0,-12.511Z" style="fill:#13e1ff;"/><path d="M801.25,198.091c0,-3.452 -2.803,-6.255 -6.256,-6.255l-13.738,0c-3.453,0 -6.256,2.803 -6.256,6.255l0,12.511c0,3.453 2.803,6.256 6.256,6.256l13.738,0c3.453,0 6.256,-2.803 6.256,-6.256l0,-12.511Z" style="fill:#13e1ff;"/><path d="M811.409,1050.49c3.675,-6.045 1.636,-13.727 -4.551,-17.144l-23.538,-13.003c-6.187,-3.418 -14.193,-1.285 -17.868,4.759l-13.316,21.904c-3.675,6.044 -1.636,13.726 4.55,17.144l23.539,13.003c6.186,3.417 14.192,1.285 17.867,-4.76l13.317,-21.903Z" style="fill:#13e1ff;"/><path d="M1959.2,979.728c-6.376,-9.403 -19.398,-12.204 -29.062,-6.251l-36.478,22.473c-9.664,5.953 -12.333,18.421 -5.958,27.825l23.104,34.076c6.376,9.404 19.398,12.205 29.062,6.252l36.478,-22.473c9.664,-5.953 12.333,-18.421 5.958,-27.825l-23.104,-34.077Z" style="fill:#13e1ff;"/><path d="M1173.49,223.028c-6.376,-9.403 -19.398,-12.205 -29.062,-6.251l-36.478,22.473c-9.664,5.953 -12.333,18.421 -5.958,27.825l23.104,34.076c6.376,9.404 19.398,12.205 29.062,6.252l36.478,-22.473c9.664,-5.954 12.334,-18.422 5.958,-27.825l-23.104,-34.077Z" style="fill:#13e1ff;"/><path d="M586.327,158.122c-0.911,-11.163 -10.719,-19.553 -21.888,-18.724l-44.4,3.294c-11.169,0.829 -19.496,10.565 -18.585,21.727l3.303,40.452c0.912,11.163 10.72,19.553 21.889,18.724l44.399,-3.294c11.169,-0.829 19.497,-10.565 18.585,-21.728l-3.303,-40.451Z" style="fill:#13e1ff;fill-opacity:0.24;"/><g><path d="M107.389,950.514c40.105,-88.074 147.679,-128.541 240.075,-90.313c92.396,38.229 134.849,140.771 94.745,228.845c-40.105,88.074 -147.679,128.542 -240.075,90.313c-92.396,-38.229 -134.85,-140.771 -94.745,-228.845Z" style="fill:#4cceff;fill-opacity:0.22;"/><path d="M169.731,1091.91c32.139,-70.58 118.345,-103.009 192.389,-72.374c74.043,30.636 108.064,112.809 75.925,183.389c-32.139,70.58 -118.345,103.01 -192.388,72.374c-74.044,-30.635 -108.065,-112.809 -75.926,-183.389Z" style="fill:#acdbed;fill-opacity:0.22;"/><path d="M418.271,1066.8c13.047,-28.654 48.046,-41.82 78.106,-29.383c30.06,12.438 43.873,45.799 30.825,74.453c-13.048,28.654 -48.046,41.82 -78.107,29.383c-30.06,-12.438 -43.872,-45.799 -30.824,-74.453Z" style="fill:#fff;fill-opacity:0.22;"/></g></svg>