<?xml version="1.0" encoding="UTF-8" standalone="no"?><!DOCTYPE svg PUBLIC "-//W3C//DTD SVG 1.1//EN" "http://www.w3.org/Graphics/SVG/1.1/DTD/svg11.dtd"><svg width="100%" height="100%" viewBox="0 0 1280 800" version="1.1" xmlns="http://www.w3.org/2000/svg" xmlns:xlink="http://www.w3.org/1999/xlink" xml:space="preserve" xmlns:serif="http://www.serif.com/" style="fill-rule:evenodd;clip-rule:evenodd;stroke-linejoin:round;stroke-miterlimit:2;"><circle id="Outer-Plate" serif:id="Outer Plate" cx="639.373" cy="400" r="372.493" style="fill:#0093cb;"/><ellipse id="Inner-Plate" serif:id="Inner Plate" cx="639.373" cy="400" rx="299.853" ry="303.37" style="fill:#00709b;"/><g id="Knife"><path d="M508.148,306.359c-2.347,-2.224 -2.391,-5.878 -0.097,-8.156l8.312,-8.252c2.294,-2.277 6.062,-2.32 8.41,-0.096l264.555,250.606c2.348,2.224 2.392,5.879 0.098,8.156l-8.312,8.252c-2.294,2.277 -6.062,2.32 -8.41,0.096l-264.556,-250.606Z" style="fill:#eafcff;"/><path d="M453.928,241.894c0,0 15.099,-15.797 157.055,130.268c8.411,8.655 8.475,22.76 0.141,31.479c-8.333,8.719 -21.928,8.77 -30.339,0.116c-141.957,-146.065 -126.857,-161.863 -126.857,-161.863Z" style="fill:#eafcff;"/></g><g id="Fork"><path d="M758.421,369.454c0.864,-0.87 0.861,-2.28 -0.006,-3.147l-58.313,-58.255c-0.867,-0.867 -2.273,-0.864 -3.137,0.006l-3.131,3.153c-0.863,0.87 -0.861,2.28 0.007,3.147l58.313,58.255c0.867,0.867 2.273,0.864 3.137,-0.006l3.13,-3.153Z" style="fill:#eafcff;"/><path d="M824.885,288.551l-77.33,74.992c-2.698,2.616 -2.699,6.862 -0.003,9.476c2.696,2.615 7.075,2.614 9.772,-0.002c77.331,-74.991 67.561,-84.466 67.561,-84.466Z" style="fill:#eafcff;"/><path d="M805.878,262.484c0,0 -4.845,-4.698 -82.175,70.293c-2.698,2.616 -2.699,6.862 -0.003,9.477c2.696,2.614 7.075,2.613 9.772,-0.002c77.331,-74.992 72.406,-79.768 72.406,-79.768Z" style="fill:#eafcff;"/><path d="M780.151,245.17c0,0 -9.77,-9.474 -87.1,65.518c-2.697,2.615 -2.698,6.862 -0.002,9.476c2.696,2.615 7.074,2.614 9.772,-0.002l77.33,-74.992Z" style="fill:#eafcff;"/><path d="M723.035,359.182c2.199,-2.133 2.2,-5.595 0.002,-7.726l-7.966,-7.725c-2.198,-2.131 -5.768,-2.131 -7.967,0.002l-203.992,197.822c-2.199,2.133 -2.2,5.595 -0.002,7.727l7.965,7.724c2.199,2.132 5.769,2.131 7.968,-0.001l203.992,-197.823Z" style="fill:#eafcff;"/><path d="M703.113,310.165c-4.479,-0.929 -7.911,-0.336 -9.951,1.719c-6.416,6.462 2.216,25.536 19.266,42.569c17.049,17.032 36.1,25.615 42.517,19.153c2.04,-2.055 2.617,-5.499 1.673,-9.988l-53.505,-53.453Z" style="fill:#eafcff;"/></g><g id="App"><text x="1042.11px" y="472.763px" style="font-family:'Phosphate-Inline', 'Phosphate';font-size:217.615px;fill:#004b68;">P</text><text x="1042.11px" y="692.08px" style="font-family:'Phosphate-Inline', 'Phosphate';font-size:217.615px;fill:#004b68;">P</text><text x="1042.11px" y="253.069px" style="font-family:'Phosphate-Inline', 'Phosphate';font-size:217.615px;fill:#004b68;">A</text></g><g id="Bon"><text x="104.804px" y="692.08px" style="font-family:'Phosphate-Inline', 'Phosphate';font-size:228.117px;fill:#004b68;">N</text><text x="101.689px" y="461.399px" style="font-family:'Phosphate-Inline', 'Phosphate';font-size:206.391px;fill:#004b68;">O</text><text x="105.025px" y="260.073px" style="font-family:'Phosphate-Inline', 'Phosphate';font-size:228.117px;fill:#004b68;">B</text></g></svg>