<?xml version="1.0" encoding="UTF-8" standalone="no"?><!DOCTYPE svg PUBLIC "-//W3C//DTD SVG 1.1//EN" "http://www.w3.org/Graphics/SVG/1.1/DTD/svg11.dtd"><svg width="100%" height="100%" viewBox="0 0 900 1440" version="1.1" xmlns="http://www.w3.org/2000/svg" xmlns:xlink="http://www.w3.org/1999/xlink" xml:space="preserve" xmlns:serif="http://www.serif.com/" style="fill-rule:evenodd;clip-rule:evenodd;stroke-linejoin:round;stroke-miterlimit:2;"><rect x="0" y="0" width="900" height="1440" style="fill:#eafcff;"/><circle cx="408" cy="562" r="42" style="fill:#01dfff;fill-opacity:0.19;"/><circle cx="788" cy="136" r="59" style="fill:#01dfff;fill-opacity:0.06;"/><circle cx="748" cy="645" r="19" style="fill:#01dfff;fill-opacity:0.13;"/><circle cx="464.5" cy="257.5" r="14.5" style="fill:#01dfff;fill-opacity:0.15;"/><circle cx="568" cy="583" r="21" style="fill:#01dfff;fill-opacity:0.15;"/><circle cx="260.5" cy="734.5" r="14.5" style="fill:#01dfff;fill-opacity:0.13;"/><circle cx="607.5" cy="1108.5" r="60.5" style="fill:#01dfff;fill-opacity:0.25;"/><circle cx="168" cy="1186.5" r="78" style="fill:#01dfff;fill-opacity:0.25;"/><circle cx="491" cy="783" r="12" style="fill:#01dfff;fill-opacity:0.13;"/><circle cx="774.5" cy="370.5" r="46.5" style="fill:#b3f6ff;fill-opacity:0.25;"/><circle cx="177" cy="62" r="9" style="fill:#01dfff;fill-opacity:0.15;"/><circle cx="751.25" cy="1325.25" r="23.25" style="fill:#01dfff;fill-opacity:0.15;"/><circle cx="412.25" cy="1248.25" r="16.25" style="fill:#01dfff;fill-opacity:0.13;"/><circle cx="196" cy="865" r="19" style="fill:#01dfff;fill-opacity:0.13;"/><path d="M105.304,537.101c4.196,-4.195 4.196,-11.007 0,-15.202l-15.203,-15.203c-4.195,-4.196 -11.007,-4.196 -15.202,0l-15.203,15.203c-4.196,4.195 -4.196,11.007 0,15.202l15.203,15.203c4.195,4.196 11.007,4.196 15.202,0l15.203,-15.203Z" style="fill:#01dfff;fill-opacity:0.29;"/><path d="M560,422c0,-2.76 -2.24,-5 -5,-5l-10,0c-2.76,0 -5,2.24 -5,5l0,10c0,2.76 2.24,5 5,5l10,0c2.76,0 5,-2.24 5,-5l0,-10Z" style="fill:#01dfff;"/><path d="M623,114.75c0,-8.693 -7.057,-15.75 -15.75,-15.75l-31.5,0c-8.693,0 -15.75,7.057 -15.75,15.75l0,31.5c0,8.693 7.057,15.75 15.75,15.75l31.5,0c8.693,0 15.75,-7.057 15.75,-15.75l0,-31.5Z" style="fill:#b3f6ff;"/><path d="M719.407,904.082c-2.531,-2.344 -6.488,-2.192 -8.832,0.339l-8.493,9.172c-2.344,2.531 -2.192,6.488 0.339,8.832l9.172,8.493c2.531,2.344 6.488,2.192 8.832,-0.339l8.493,-9.172c2.344,-2.531 2.192,-6.488 -0.339,-8.832l-9.172,-8.493Z" style="fill:#01dfff;fill-opacity:0.29;"/><path d="M366.555,962.572c4.548,-0.225 8.057,-4.099 7.832,-8.647l-0.815,-16.48c-0.225,-4.548 -4.099,-8.057 -8.647,-7.832l-16.48,0.815c-4.548,0.225 -8.057,4.099 -7.832,8.647l0.815,16.48c0.225,4.548 4.099,8.057 8.647,7.832l16.48,-0.815Z" style="fill:#01dfff;"/><path d="M555.727,1313.4c-1.487,-2.324 -4.582,-3.004 -6.906,-1.516l-8.423,5.391c-2.324,1.487 -3.004,4.582 -1.516,6.906l5.391,8.423c1.487,2.324 4.582,3.004 6.906,1.516l8.423,-5.391c2.324,-1.487 3.004,-4.582 1.516,-6.906l-5.391,-8.423Z" style="fill:#01dfff;fill-opacity:0.29;"/><path d="M844.259,1101.49c-2.071,-7.73 -10.029,-12.324 -17.759,-10.253l-28.012,7.506c-7.73,2.071 -12.324,10.029 -10.253,17.759l7.506,28.012c2.071,7.73 10.029,12.324 17.759,10.253l28.012,-7.506c7.73,-2.071 12.324,-10.029 10.253,-17.759l-7.506,-28.012Z" style="fill:#01dfff;fill-opacity:0.29;"/><path d="M258.249,549.876c-3.864,-6.692 -12.433,-8.988 -19.125,-5.125l-24.248,14c-6.692,3.864 -8.988,12.433 -5.125,19.125l14,24.248c3.864,6.692 12.433,8.988 19.125,5.125l24.248,-14c6.692,-3.864 8.988,-12.433 5.125,-19.125l-14,-24.248Z" style="fill:#01dfff;fill-opacity:0.56;"/><path d="M374.5,52.167c1.61,-1.61 1.61,-4.224 0,-5.834l-5.833,-5.833c-1.61,-1.61 -4.224,-1.61 -5.834,0l-5.833,5.833c-1.61,1.61 -1.61,4.224 0,5.834l5.833,5.833c1.61,1.61 4.224,1.61 5.834,0l5.833,-5.833Z" style="fill:#01dfff;fill-opacity:0.15;"/><circle cx="218" cy="296" r="101" style="fill:#01dfff;fill-opacity:0.25;"/></svg>